<mxfile host="app.diagrams.net" modified="2020-05-01T20:47:44.576Z" agent="5.0 (Windows NT 10.0; Win64; x64) AppleWebKit/537.36 (KHTML, like Gecko) Chrome/81.0.4044.129 Safari/537.36" etag="ww0ijBrpM2cqwmGwJgXl" version="13.0.5" type="github">
  <diagram id="VjZmuH5R4QnwBYRe0RtB" name="Page-1">
    <mxGraphModel dx="1150" dy="590" grid="1" gridSize="10" guides="1" tooltips="1" connect="1" arrows="1" fold="1" page="1" pageScale="1" pageWidth="850" pageHeight="1100" math="0" shadow="0">
      <root>
        <mxCell id="0" />
        <mxCell id="1" parent="0" />
        <mxCell id="cme7_JMBQNltkE2oGJs2-4" value="" style="rounded=0;whiteSpace=wrap;html=1;" vertex="1" parent="1">
          <mxGeometry x="230" y="420" width="280" height="100" as="geometry" />
        </mxCell>
        <mxCell id="ZCQE3jyRjgQ5pHx9KMXe-1" value="Browser" style="shape=umlLifeline;perimeter=lifelinePerimeter;whiteSpace=wrap;html=1;container=1;collapsible=0;recursiveResize=0;outlineConnect=0;" parent="1" vertex="1">
          <mxGeometry x="70" y="460" width="100" height="440" as="geometry" />
        </mxCell>
        <mxCell id="ZCQE3jyRjgQ5pHx9KMXe-5" value="" style="html=1;points=[];perimeter=orthogonalPerimeter;" parent="ZCQE3jyRjgQ5pHx9KMXe-1" vertex="1">
          <mxGeometry x="45" y="60" width="10" height="120" as="geometry" />
        </mxCell>
        <mxCell id="cme7_JMBQNltkE2oGJs2-7" value="" style="html=1;points=[];perimeter=orthogonalPerimeter;" vertex="1" parent="ZCQE3jyRjgQ5pHx9KMXe-1">
          <mxGeometry x="45" y="360" width="10" height="80" as="geometry" />
        </mxCell>
        <mxCell id="ZCQE3jyRjgQ5pHx9KMXe-2" value="Inform" style="shape=umlLifeline;perimeter=lifelinePerimeter;whiteSpace=wrap;html=1;container=1;collapsible=0;recursiveResize=0;outlineConnect=0;" parent="1" vertex="1">
          <mxGeometry x="240" y="460" width="100" height="440" as="geometry" />
        </mxCell>
        <mxCell id="ZCQE3jyRjgQ5pHx9KMXe-6" value="" style="html=1;points=[];perimeter=orthogonalPerimeter;" parent="ZCQE3jyRjgQ5pHx9KMXe-2" vertex="1">
          <mxGeometry x="48" y="76" width="5" height="80" as="geometry" />
        </mxCell>
        <mxCell id="cme7_JMBQNltkE2oGJs2-8" value="" style="html=1;points=[];perimeter=orthogonalPerimeter;" vertex="1" parent="ZCQE3jyRjgQ5pHx9KMXe-2">
          <mxGeometry x="45" y="360" width="10" height="80" as="geometry" />
        </mxCell>
        <mxCell id="ZCQE3jyRjgQ5pHx9KMXe-3" value="lndm" style="shape=umlLifeline;perimeter=lifelinePerimeter;whiteSpace=wrap;html=1;container=1;collapsible=0;recursiveResize=0;outlineConnect=0;" parent="1" vertex="1">
          <mxGeometry x="520" y="460" width="100" height="300" as="geometry" />
        </mxCell>
        <mxCell id="ZCQE3jyRjgQ5pHx9KMXe-17" value="" style="html=1;points=[];perimeter=orthogonalPerimeter;" parent="ZCQE3jyRjgQ5pHx9KMXe-3" vertex="1">
          <mxGeometry x="45" y="200" width="10" height="80" as="geometry" />
        </mxCell>
        <mxCell id="ZCQE3jyRjgQ5pHx9KMXe-18" value="sftp:retrieve files" style="html=1;verticalAlign=bottom;startArrow=oval;startFill=1;endArrow=block;startSize=8;entryX=0.9;entryY=0.183;entryDx=0;entryDy=0;entryPerimeter=0;" parent="ZCQE3jyRjgQ5pHx9KMXe-3" edge="1" target="cme7_JMBQNltkE2oGJs2-5">
          <mxGeometry width="60" relative="1" as="geometry">
            <mxPoint x="50" y="200" as="sourcePoint" />
            <mxPoint x="-100" y="200" as="targetPoint" />
          </mxGeometry>
        </mxCell>
        <mxCell id="ZCQE3jyRjgQ5pHx9KMXe-4" value="Kofax" style="shape=umlLifeline;perimeter=lifelinePerimeter;whiteSpace=wrap;html=1;container=1;collapsible=0;recursiveResize=0;outlineConnect=0;" parent="1" vertex="1">
          <mxGeometry x="690" y="460" width="100" height="300" as="geometry" />
        </mxCell>
        <mxCell id="ZCQE3jyRjgQ5pHx9KMXe-7" value="http:User Uploads Document" style="html=1;verticalAlign=bottom;startArrow=oval;endArrow=block;startSize=8;exitX=1;exitY=0.263;exitDx=0;exitDy=0;exitPerimeter=0;" parent="1" source="ZCQE3jyRjgQ5pHx9KMXe-5" target="ZCQE3jyRjgQ5pHx9KMXe-6" edge="1">
          <mxGeometry x="0.0383" y="11" relative="1" as="geometry">
            <mxPoint x="125" y="504" as="sourcePoint" />
            <mxPoint as="offset" />
          </mxGeometry>
        </mxCell>
        <mxCell id="ZCQE3jyRjgQ5pHx9KMXe-8" value="/j2/oms/output" style="shape=dataStorage;whiteSpace=wrap;html=1;" parent="1" vertex="1">
          <mxGeometry x="375" y="457" width="100" height="50" as="geometry" />
        </mxCell>
        <mxCell id="ZCQE3jyRjgQ5pHx9KMXe-9" value="" style="endArrow=classic;html=1;" parent="1" source="ZCQE3jyRjgQ5pHx9KMXe-2" edge="1">
          <mxGeometry width="50" height="50" relative="1" as="geometry">
            <mxPoint x="420" y="750" as="sourcePoint" />
            <mxPoint x="425" y="580" as="targetPoint" />
            <Array as="points">
              <mxPoint x="360" y="580" />
            </Array>
          </mxGeometry>
        </mxCell>
        <mxCell id="ZCQE3jyRjgQ5pHx9KMXe-11" value="" style="endArrow=none;dashed=1;html=1;" parent="1" target="ZCQE3jyRjgQ5pHx9KMXe-8" edge="1">
          <mxGeometry width="50" height="50" relative="1" as="geometry">
            <mxPoint x="425" y="760" as="sourcePoint" />
            <mxPoint x="470" y="700" as="targetPoint" />
          </mxGeometry>
        </mxCell>
        <mxCell id="ZCQE3jyRjgQ5pHx9KMXe-23" value="ndm:send files" style="html=1;verticalAlign=bottom;startArrow=oval;startFill=1;endArrow=block;startSize=8;" parent="1" target="ZCQE3jyRjgQ5pHx9KMXe-4" edge="1">
          <mxGeometry width="60" relative="1" as="geometry">
            <mxPoint x="570" y="710" as="sourcePoint" />
            <mxPoint x="630" y="710" as="targetPoint" />
          </mxGeometry>
        </mxCell>
        <mxCell id="cme7_JMBQNltkE2oGJs2-2" value="OS: writefile&lt;br&gt;" style="text;html=1;resizable=0;autosize=1;align=center;verticalAlign=middle;points=[];fillColor=none;strokeColor=none;rounded=0;" vertex="1" parent="1">
          <mxGeometry x="320" y="560" width="80" height="20" as="geometry" />
        </mxCell>
        <mxCell id="cme7_JMBQNltkE2oGJs2-5" value="" style="html=1;points=[];perimeter=orthogonalPerimeter;" vertex="1" parent="1">
          <mxGeometry x="420" y="650" width="10" height="60" as="geometry" />
        </mxCell>
        <mxCell id="cme7_JMBQNltkE2oGJs2-6" value="" style="html=1;points=[];perimeter=orthogonalPerimeter;" vertex="1" parent="1">
          <mxGeometry x="420" y="660" width="10" height="80" as="geometry" />
        </mxCell>
        <mxCell id="cme7_JMBQNltkE2oGJs2-9" value="http:search/get" style="html=1;verticalAlign=bottom;startArrow=oval;endArrow=block;startSize=8;" edge="1" target="cme7_JMBQNltkE2oGJs2-8" parent="1">
          <mxGeometry relative="1" as="geometry">
            <mxPoint x="119.5" y="828" as="sourcePoint" />
          </mxGeometry>
        </mxCell>
        <mxCell id="cme7_JMBQNltkE2oGJs2-11" value="dispatch" style="html=1;verticalAlign=bottom;endArrow=block;entryX=0;entryY=0;" edge="1" target="cme7_JMBQNltkE2oGJs2-10" parent="1" source="ZCQE3jyRjgQ5pHx9KMXe-2">
          <mxGeometry relative="1" as="geometry">
            <mxPoint x="665" y="840" as="sourcePoint" />
          </mxGeometry>
        </mxCell>
        <mxCell id="cme7_JMBQNltkE2oGJs2-12" value="result / file" style="html=1;verticalAlign=bottom;endArrow=open;dashed=1;endSize=8;exitX=0;exitY=0.95;entryX=0.9;entryY=0.713;entryDx=0;entryDy=0;entryPerimeter=0;" edge="1" source="cme7_JMBQNltkE2oGJs2-10" parent="1" target="cme7_JMBQNltkE2oGJs2-8">
          <mxGeometry x="-0.002" y="-7" relative="1" as="geometry">
            <mxPoint x="665" y="916" as="targetPoint" />
            <mxPoint as="offset" />
          </mxGeometry>
        </mxCell>
        <mxCell id="cme7_JMBQNltkE2oGJs2-19" value="PostEdge&lt;br&gt;" style="shape=umlLifeline;perimeter=lifelinePerimeter;whiteSpace=wrap;html=1;container=1;collapsible=0;recursiveResize=0;outlineConnect=0;" vertex="1" parent="1">
          <mxGeometry x="760" y="480" width="100" height="420" as="geometry" />
        </mxCell>
        <mxCell id="cme7_JMBQNltkE2oGJs2-10" value="" style="html=1;points=[];perimeter=orthogonalPerimeter;" vertex="1" parent="cme7_JMBQNltkE2oGJs2-19">
          <mxGeometry x="45" y="360" width="10" height="60" as="geometry" />
        </mxCell>
        <mxCell id="cme7_JMBQNltkE2oGJs2-20" value="OpenEdge on HPUX&amp;nbsp; or&amp;nbsp; SpringBoot on linux" style="text;html=1;resizable=0;autosize=1;align=center;verticalAlign=middle;points=[];fillColor=none;strokeColor=none;rounded=0;" vertex="1" parent="1">
          <mxGeometry x="240" y="430" width="250" height="20" as="geometry" />
        </mxCell>
        <mxCell id="cme7_JMBQNltkE2oGJs2-21" value="return" style="html=1;verticalAlign=bottom;endArrow=open;dashed=1;endSize=8;exitX=1.1;exitY=0.313;exitDx=0;exitDy=0;exitPerimeter=0;" edge="1" parent="1" source="cme7_JMBQNltkE2oGJs2-6" target="ZCQE3jyRjgQ5pHx9KMXe-17">
          <mxGeometry relative="1" as="geometry">
            <mxPoint x="510" y="686" as="sourcePoint" />
            <mxPoint x="430" y="686" as="targetPoint" />
          </mxGeometry>
        </mxCell>
        <mxCell id="cme7_JMBQNltkE2oGJs2-22" value="return" style="html=1;verticalAlign=bottom;endArrow=open;dashed=1;endSize=8;" edge="1" parent="1" target="ZCQE3jyRjgQ5pHx9KMXe-1">
          <mxGeometry relative="1" as="geometry">
            <mxPoint x="290" y="610" as="sourcePoint" />
            <mxPoint x="210" y="610" as="targetPoint" />
          </mxGeometry>
        </mxCell>
        <mxCell id="cme7_JMBQNltkE2oGJs2-23" value="result/file" style="html=1;verticalAlign=bottom;endArrow=open;dashed=1;endSize=8;" edge="1" parent="1" target="ZCQE3jyRjgQ5pHx9KMXe-1">
          <mxGeometry x="-0.0616" relative="1" as="geometry">
            <mxPoint x="290" y="880" as="sourcePoint" />
            <mxPoint x="210" y="880" as="targetPoint" />
            <Array as="points">
              <mxPoint x="240" y="880" />
            </Array>
            <mxPoint as="offset" />
          </mxGeometry>
        </mxCell>
      </root>
    </mxGraphModel>
  </diagram>
</mxfile>
